<svg xmlns="http://www.w3.org/2000/svg" width="309" height="119" viewBox="0 0 309 119">
  <g id="Group_176" data-name="Group 176" transform="translate(636 -1721)">
    <g id="Group_172" data-name="Group 172" transform="translate(-1009 -178.79)">
      <g id="Path_23" data-name="Path 23" transform="translate(373 1935)" fill="#f78a3c">
        <path d="M 67.0322265625 79.790283203125 L 16.758056640625 79.790283203125 C 13.35025596618652 79.790283203125 10.14642715454102 78.46321105957031 7.736755847930908 76.05352783203125 C 5.327070236206055 73.64385223388672 3.999998807907104 70.44002532958984 3.999998807907104 67.0322265625 L 3.999998807907104 16.758056640625 C 3.999998807907104 13.35025596618652 5.327070236206055 10.14642715454102 7.736755847930908 7.736755847930908 C 10.14642715454102 5.327070236206055 13.35025596618652 3.999998807907104 16.758056640625 3.999998807907104 L 67.0322265625 3.999998807907104 C 70.44002532958984 3.999998807907104 73.64385223388672 5.327070236206055 76.05352783203125 7.736755847930908 C 78.46321105957031 10.14642715454102 79.790283203125 13.35025596618652 79.790283203125 16.758056640625 L 79.790283203125 67.0322265625 C 79.790283203125 70.44002532958984 78.46321105957031 73.64385223388672 76.05352783203125 76.05352783203125 C 73.64385223388672 78.46321105957031 70.44002532958984 79.790283203125 67.0322265625 79.790283203125 Z" stroke="none"/>
        <path d="M 16.75806427001953 8 C 11.92884063720703 8 8 11.92884063720703 8 16.75806427001953 L 8 67.03221893310547 C 8 71.86144256591797 11.92884063720703 75.790283203125 16.75806427001953 75.790283203125 L 67.03221893310547 75.790283203125 C 71.86144256591797 75.790283203125 75.790283203125 71.86144256591797 75.790283203125 67.03221893310547 L 75.790283203125 16.75806427001953 C 75.790283203125 11.92884063720703 71.86144256591797 8 67.03221893310547 8 L 16.75806427001953 8 M 16.75806427001953 0 L 67.03221893310547 0 C 76.28744506835938 0 83.790283203125 7.502838134765625 83.790283203125 16.75806427001953 L 83.790283203125 67.03221893310547 C 83.790283203125 76.28744506835938 76.28744506835938 83.790283203125 67.03221893310547 83.790283203125 L 16.75806427001953 83.790283203125 C 7.502838134765625 83.790283203125 0 76.28744506835938 0 67.03221893310547 L 0 16.75806427001953 C 0 7.502838134765625 7.502838134765625 0 16.75806427001953 0 Z" stroke="none" fill="#fff"/>
      </g>
      <path id="ic_person_add_24px" d="M25.5,18a7,7,0,1,0-7-7A7,7,0,0,0,25.5,18ZM9.75,14.5V9.25H6.25V14.5H1V18H6.25v5.25h3.5V18H15V14.5Zm15.75,7c-4.672,0-14,2.345-14,7V32h28V28.5C39.5,23.845,30.172,21.5,25.5,21.5Z" transform="translate(395 1957.336)" fill="#fff"/>
    </g>
    <g id="Group_173" data-name="Group 173" transform="translate(-1173.79 -308.79)">
      <g id="Path_24" data-name="Path 24" transform="translate(763 2065)" fill="#f78a3c" stroke-linecap="round">
        <path d="M 67.0322265625 79.790283203125 L 16.75805282592773 79.790283203125 C 13.35025215148926 79.790283203125 10.14642333984375 78.46321105957031 7.736752033233643 76.05352020263672 C 5.327066421508789 73.64385223388672 3.999994993209839 70.44002532958984 3.999994993209839 67.0322265625 L 3.999994993209839 16.75805282592773 C 3.999994993209839 13.35025215148926 5.327066421508789 10.14642333984375 7.736752033233643 7.736752033233643 C 10.14642333984375 5.327066421508789 13.35025215148926 3.999994993209839 16.75805282592773 3.999994993209839 L 67.0322265625 3.999994993209839 C 70.44002532958984 3.999994993209839 73.64385223388672 5.327066421508789 76.05352020263672 7.736752033233643 C 78.46321105957031 10.14642333984375 79.790283203125 13.35025215148926 79.790283203125 16.75805282592773 L 79.790283203125 67.0322265625 C 79.790283203125 70.44002532958984 78.46321105957031 73.64385223388672 76.05352020263672 76.05352020263672 C 73.64385223388672 78.46321105957031 70.44002532958984 79.790283203125 67.0322265625 79.790283203125 Z" stroke="none"/>
        <path d="M 16.758056640625 8 C 11.92884063720703 8 8 11.92884063720703 8 16.758056640625 L 8 67.03221893310547 C 8 71.86143493652344 11.92884063720703 75.79027557373047 16.758056640625 75.79027557373047 L 67.03221893310547 75.79027557373047 C 71.86143493652344 75.79027557373047 75.79027557373047 71.86143493652344 75.79027557373047 67.03221893310547 L 75.79027557373047 16.758056640625 C 75.79027557373047 11.92884063720703 71.86143493652344 8 67.03221893310547 8 L 16.758056640625 8 M 16.758056640625 0 L 67.03221893310547 0 C 76.28743743896484 0 83.79027557373047 7.502838134765625 83.79027557373047 16.758056640625 L 83.79027557373047 67.03221893310547 C 83.79027557373047 76.28743743896484 76.28743743896484 83.79027557373047 67.03221893310547 83.79027557373047 L 16.758056640625 83.79027557373047 C 7.502838134765625 83.79027557373047 0 76.28743743896484 0 67.03221893310547 L 0 16.758056640625 C 0 7.502838134765625 7.502838134765625 0 16.758056640625 0 Z" stroke="none" fill="#fff"/>
      </g>
      <path id="ic_visibility_24px" d="M18.606,4.5A18.929,18.929,0,0,0,1,16.5a18.913,18.913,0,0,0,35.211,0A18.929,18.929,0,0,0,18.606,4.5Zm0,20.006a8,8,0,1,1,8-8A8.005,8.005,0,0,1,18.606,24.506Zm0-12.8a4.8,4.8,0,1,0,4.8,4.8A4.8,4.8,0,0,0,18.606,11.7Z" transform="translate(786.113 2090.283)" fill="#fff"/>
    </g>
    <g id="Group_174" data-name="Group 174" transform="translate(-1304 -214)">
      <g id="Path_25" data-name="Path 25" transform="translate(763 1935)" fill="#f78a3c" stroke-linecap="round">
        <path d="M 95.20000457763672 115 L 23.80000305175781 115 C 18.5112247467041 115 13.53902339935303 112.9404449462891 9.799283981323242 109.2007217407227 C 6.059563636779785 105.4609832763672 4.000003814697266 100.4887847900391 4.000003814697266 95.20000457763672 L 4.000003814697266 23.80000305175781 C 4.000003814697266 18.5112247467041 6.059563636779785 13.53902339935303 9.799283981323242 9.799283981323242 C 13.53902339935303 6.059563636779785 18.5112247467041 4.000003814697266 23.80000305175781 4.000003814697266 L 95.20000457763672 4.000003814697266 C 100.4887847900391 4.000003814697266 105.4609832763672 6.059563636779785 109.2007217407227 9.799283981323242 C 112.9404449462891 13.53902339935303 115 18.5112247467041 115 23.80000305175781 L 115 95.20000457763672 C 115 100.4887847900391 112.9404449462891 105.4609832763672 109.2007217407227 109.2007217407227 C 105.4609832763672 112.9404449462891 100.4887847900391 115 95.20000457763672 115 Z" stroke="none"/>
        <path d="M 23.80000305175781 8.000007629394531 C 15.08784484863281 8.000007629394531 8.000007629394531 15.08784484863281 8.000007629394531 23.80000305175781 L 8.000007629394531 95.20000457763672 C 8.000007629394531 103.9121627807617 15.08784484863281 111 23.80000305175781 111 L 95.20000457763672 111 C 103.9121627807617 111 111 103.9121627807617 111 95.20000457763672 L 111 23.80000305175781 C 111 15.08784484863281 103.9121627807617 8.000007629394531 95.20000457763672 8.000007629394531 L 23.80000305175781 8.000007629394531 M 23.80000305175781 7.62939453125e-06 L 95.20000457763672 7.62939453125e-06 C 108.344367980957 7.62939453125e-06 119 10.65561676025391 119 23.80000305175781 L 119 95.20000457763672 C 119 108.344367980957 108.344367980957 119 95.20000457763672 119 L 23.80000305175781 119 C 10.65561676025391 119 7.62939453125e-06 108.344367980957 7.62939453125e-06 95.20000457763672 L 7.62939453125e-06 23.80000305175781 C 7.62939453125e-06 10.65561676025391 10.65561676025391 7.62939453125e-06 23.80000305175781 7.62939453125e-06 Z" stroke="none" fill="#fff"/>
      </g>
      <g id="Group_175" data-name="Group 175" transform="translate(8 -10)">
        <path id="ic_check_box_24px" d="M25.558,28.664,0,3.879,3.879,0,25.558,20.879,46.437,0l3.879,3.906Z" transform="translate(823.006 2030.124) rotate(-90)" fill="#fff"/>
        <path id="ic_check_box_24px-2" data-name="ic_check_box_24px" d="M25.558,0,0,24.786l3.879,3.879L25.558,7.785,46.437,28.664l3.879-3.906Z" transform="translate(777.754 2030.124) rotate(-90)" fill="#fff"/>
      </g>
    </g>
  </g>
</svg>
