<svg xmlns="http://www.w3.org/2000/svg" xmlns:xlink="http://www.w3.org/1999/xlink" width="328.22" height="127.815" viewBox="0 0 328.22 127.815">
  <defs>
    <filter id="Path_23" x="0" y="31.899" width="95.917" height="95.917" filterUnits="userSpaceOnUse">
      <feOffset dy="3" input="SourceAlpha"/>
      <feGaussianBlur stdDeviation="3" result="blur"/>
      <feFlood flood-opacity="0.161"/>
      <feComposite operator="in" in2="blur"/>
      <feComposite in="SourceGraphic"/>
    </filter>
    <filter id="Path_24" x="232.303" y="31.899" width="95.917" height="95.917" filterUnits="userSpaceOnUse">
      <feOffset dy="3" input="SourceAlpha"/>
      <feGaussianBlur stdDeviation="3" result="blur-2"/>
      <feFlood flood-opacity="0.161"/>
      <feComposite operator="in" in2="blur-2"/>
      <feComposite in="SourceGraphic"/>
    </filter>
    <filter id="Path_25" x="100.202" y="0" width="127.815" height="127.815" filterUnits="userSpaceOnUse">
      <feOffset dy="3" input="SourceAlpha"/>
      <feGaussianBlur stdDeviation="3" result="blur-3"/>
      <feFlood flood-opacity="0.161"/>
      <feComposite operator="in" in2="blur-3"/>
      <feComposite in="SourceGraphic"/>
    </filter>
  </defs>
  <g id="code-section" transform="translate(650 -1720.889)">
    <g id="Group_172" data-name="Group 172" transform="translate(-641 1758.787)">
      <g transform="matrix(1, 0, 0, 1, -9, -37.9)" filter="url(#Path_23)">
        <g id="Path_23-2" data-name="Path 23" transform="translate(9 37.9)" fill="#f78a3c">
          <path d="M 62.33333206176758 73.91666412353516 L 15.58333206176758 73.91666412353516 C 12.48930549621582 73.91666412353516 9.580478668212891 72.71178436279297 7.392678737640381 70.52398681640625 C 5.204878807067871 68.336181640625 3.999998807907104 65.42736053466797 3.999998807907104 62.33333206176758 L 3.999998807907104 15.58333206176758 C 3.999998807907104 12.48930549621582 5.204878807067871 9.580478668212891 7.392678737640381 7.392678737640381 C 9.580478668212891 5.204878807067871 12.48930549621582 3.999998807907104 15.58333206176758 3.999998807907104 L 62.33333206176758 3.999998807907104 C 65.42736053466797 3.999998807907104 68.336181640625 5.204878807067871 70.52398681640625 7.392678737640381 C 72.71178436279297 9.580478668212891 73.91666412353516 12.48930549621582 73.91666412353516 15.58333206176758 L 73.91666412353516 62.33333206176758 C 73.91666412353516 65.42736053466797 72.71178436279297 68.336181640625 70.52398681640625 70.52398681640625 C 68.336181640625 72.71178436279297 65.42736053466797 73.91666412353516 62.33333206176758 73.91666412353516 Z" stroke="none"/>
          <path d="M 15.58333206176758 8.000007629394531 C 11.40187835693359 8.000007629394531 8.000007629394531 11.40187835693359 8.000007629394531 15.58333206176758 L 8.000007629394531 62.33333206176758 C 8.000007629394531 66.51478576660156 11.40187835693359 69.91665649414063 15.58333206176758 69.91665649414063 L 62.33333206176758 69.91665649414063 C 66.51478576660156 69.91665649414063 69.91665649414063 66.51478576660156 69.91665649414063 62.33333206176758 L 69.91665649414063 15.58333206176758 C 69.91665649414063 11.40187835693359 66.51478576660156 8.000007629394531 62.33333206176758 8.000007629394531 L 15.58333206176758 8.000007629394531 M 15.58333206176758 7.62939453125e-06 L 62.33333206176758 7.62939453125e-06 C 70.93976593017578 7.62939453125e-06 77.91665649414063 6.976898193359375 77.91665649414063 15.58333206176758 L 77.91665649414063 62.33333206176758 C 77.91665649414063 70.93976593017578 70.93976593017578 77.91665649414063 62.33333206176758 77.91665649414063 L 15.58333206176758 77.91665649414063 C 6.976898193359375 77.91665649414063 7.62939453125e-06 70.93976593017578 7.62939453125e-06 62.33333206176758 L 7.62939453125e-06 15.58333206176758 C 7.62939453125e-06 6.976898193359375 6.976898193359375 7.62939453125e-06 15.58333206176758 7.62939453125e-06 Z" stroke="none" fill="#fff"/>
        </g>
      </g>
      <path id="ic_person_add_24px" d="M23.783,17.019a6.509,6.509,0,1,0-6.509-6.509A6.508,6.508,0,0,0,23.783,17.019ZM9.137,13.764V8.882H5.882v4.882H1v3.255H5.882V21.9H9.137V17.019h4.882V13.764Zm14.646,6.509c-4.345,0-13.019,2.181-13.019,6.509v3.255H36.8V26.783C36.8,22.454,28.128,20.273,23.783,20.273Z" transform="translate(20.388 20.49)" fill="#fff"/>
    </g>
    <g id="Group_173" data-name="Group 173" transform="translate(-408.697 1758.787)">
      <g transform="matrix(1, 0, 0, 1, -241.3, -37.9)" filter="url(#Path_24)">
        <g id="Path_24-2" data-name="Path 24" transform="translate(241.3 37.9)" fill="#f78a3c" stroke-linecap="round">
          <path d="M 62.33332824707031 73.91666412353516 L 15.58332824707031 73.91666412353516 C 12.48931503295898 73.91666412353516 9.580488204956055 72.71178436279297 7.392688274383545 70.52397918701172 C 5.204888343811035 68.33616638183594 4.000008106231689 65.42734527587891 4.000008106231689 62.33332824707031 L 4.000008106231689 15.58332824707031 C 4.000008106231689 12.48931503295898 5.204888343811035 9.580488204956055 7.392688274383545 7.392688274383545 C 9.580488204956055 5.204888343811035 12.48931503295898 4.000008106231689 15.58332824707031 4.000008106231689 L 62.33332824707031 4.000008106231689 C 65.42734527587891 4.000008106231689 68.33616638183594 5.204888343811035 70.52397918701172 7.392688274383545 C 72.71178436279297 9.580488204956055 73.91666412353516 12.48931503295898 73.91666412353516 15.58332824707031 L 73.91666412353516 62.33332824707031 C 73.91666412353516 65.42734527587891 72.71178436279297 68.33616638183594 70.52397918701172 70.52397918701172 C 68.33616638183594 72.71178436279297 65.42734527587891 73.91666412353516 62.33332824707031 73.91666412353516 Z" stroke="none"/>
          <path d="M 15.58332824707031 8 C 11.40187072753906 8 8 11.40187072753906 8 15.58332824707031 L 8 62.33332824707031 C 8 66.51478576660156 11.40187072753906 69.91665649414063 15.58332824707031 69.91665649414063 L 62.33332824707031 69.91665649414063 C 66.51478576660156 69.91665649414063 69.91665649414063 66.51478576660156 69.91665649414063 62.33332824707031 L 69.91665649414063 15.58332824707031 C 69.91665649414063 11.40187072753906 66.51478576660156 8 62.33332824707031 8 L 15.58332824707031 8 M 15.58332824707031 0 L 62.33332824707031 0 C 70.93976593017578 0 77.91665649414063 6.976890563964844 77.91665649414063 15.58332824707031 L 77.91665649414063 62.33332824707031 C 77.91665649414063 70.93976593017578 70.93976593017578 77.91665649414063 62.33332824707031 77.91665649414063 L 15.58332824707031 77.91665649414063 C 6.976890563964844 77.91665649414063 0 70.93976593017578 0 62.33332824707031 L 0 15.58332824707031 C 0 6.976890563964844 6.976890563964844 0 15.58332824707031 0 Z" stroke="none" fill="#fff"/>
        </g>
      </g>
      <path id="ic_visibility_24px" d="M17.371,4.5A17.6,17.6,0,0,0,1,15.662a17.587,17.587,0,0,0,32.743,0A17.6,17.6,0,0,0,17.371,4.5Zm0,18.6a7.442,7.442,0,1,1,7.442-7.442A7.444,7.444,0,0,1,17.371,23.1Zm0-11.906a4.465,4.465,0,1,0,4.465,4.465A4.459,4.459,0,0,0,17.371,11.2Z" transform="translate(21.422 23.195)" fill="#fff"/>
    </g>
    <g id="Group_174" data-name="Group 174" transform="translate(-540.798 1726.889)">
      <g transform="matrix(1, 0, 0, 1, -109.2, -6)" filter="url(#Path_25)">
        <g id="Path_25-2" data-name="Path 25" transform="translate(109.2 6)" fill="#f78a3c" stroke-linecap="round">
          <path d="M 87.85220336914063 105.8152770996094 L 21.96305656433105 105.8152770996094 C 17.16494750976563 105.8152770996094 12.65403842926025 103.9468002319336 9.261257171630859 100.5540237426758 C 5.86849308013916 97.1612548828125 4.000002384185791 92.65032958984375 4.000002384185791 87.85220336914063 L 4.000002384185791 21.96305656433105 C 4.000002384185791 17.16494750976563 5.86849308013916 12.65403842926025 9.261257171630859 9.261257171630859 C 12.65403842926025 5.86849308013916 17.16494750976563 4.000002384185791 21.96305656433105 4.000002384185791 L 87.85220336914063 4.000002384185791 C 92.65032958984375 4.000002384185791 97.1612548828125 5.86849308013916 100.5540237426758 9.261257171630859 C 103.9468002319336 12.65403842926025 105.8152770996094 17.16494750976563 105.8152770996094 21.96305656433105 L 105.8152770996094 87.85220336914063 C 105.8152770996094 92.65032958984375 103.9468002319336 97.1612548828125 100.5540237426758 100.5540237426758 C 97.1612548828125 103.9468002319336 92.65032958984375 105.8152770996094 87.85220336914063 105.8152770996094 Z" stroke="none"/>
          <path d="M 21.96305084228516 8.000007629394531 C 14.26380920410156 8.000007629394531 8.000007629394531 14.26380920410156 8.000007629394531 21.96305084228516 L 8.000007629394531 87.85220336914063 C 8.000007629394531 95.55146789550781 14.26380920410156 101.8152694702148 21.96305084228516 101.8152694702148 L 87.85220336914063 101.8152694702148 C 95.55146789550781 101.8152694702148 101.8152694702148 95.55146789550781 101.8152694702148 87.85220336914063 L 101.8152694702148 21.96305084228516 C 101.8152694702148 14.26380920410156 95.55146789550781 8.000007629394531 87.85220336914063 8.000007629394531 L 21.96305084228516 8.000007629394531 M 21.96305084228516 7.62939453125e-06 L 87.85220336914063 7.62939453125e-06 C 99.98209381103516 7.62939453125e-06 109.8152694702148 9.833183288574219 109.8152694702148 21.96305084228516 L 109.8152694702148 87.85220336914063 C 109.8152694702148 99.98209381103516 99.98209381103516 109.8152694702148 87.85220336914063 109.8152694702148 L 21.96305084228516 109.8152694702148 C 9.833183288574219 109.8152694702148 7.62939453125e-06 99.98209381103516 7.62939453125e-06 87.85220336914063 L 7.62939453125e-06 21.96305084228516 C 7.62939453125e-06 9.833183288574219 9.833183288574219 7.62939453125e-06 21.96305084228516 7.62939453125e-06 Z" stroke="none" fill="#fff"/>
        </g>
      </g>
      <g id="Group_175" data-name="Group 175" transform="translate(20.107 31.513)">
        <path id="ic_check_box_24px" d="M24.2,27.136,0,3.672,3.672,0,24.2,19.766,43.961,0l3.672,3.7Z" transform="translate(42.84 47.634) rotate(-90)" fill="#fff"/>
        <path id="ic_check_box_24px-2" data-name="ic_check_box_24px" d="M24.2,0,0,23.464l3.672,3.672L24.2,7.37,43.962,27.136l3.672-3.7Z" transform="translate(0 47.634) rotate(-90)" fill="#fff"/>
      </g>
    </g>
  </g>
</svg>
