<svg id="Слой_1" data-name="Слой 1" xmlns="http://www.w3.org/2000/svg" viewBox="0 0 661 252"><defs><style>.cls-1{fill:#040201;}.cls-1,.cls-3,.cls-4{stroke:#2d3142;stroke-miterlimit:10;stroke-width:10px;}.cls-2{fill:#ffbf00;}.cls-3{fill:#2e4057;}.cls-4{fill:#454857;}</style></defs><title>цвцвМонтажная область 1</title><g id="Слой_2" data-name="Слой 2"><g id="Слой_1-2" data-name="Слой 1-2"><rect class="cls-1" x="209.5" y="5" width="242" height="242" rx="45.16" ry="45.16"/><path class="cls-2" d="M249.22,192.17,361.59,79.81a12.09,12.09,0,0,1,17.11,0h0a12.11,12.11,0,0,1,0,17.11L266.33,209.28a12.09,12.09,0,0,1-17.11,0h0A12.09,12.09,0,0,1,249.22,192.17Z"/><rect class="cls-2" x="260.32" y="35.4" width="161.33" height="24.2" rx="9.95" ry="9.95"/><rect class="cls-2" x="397.45" y="35.66" width="24.2" height="161.33" rx="9.95" ry="9.95"/><rect class="cls-3" x="486.2" y="77" width="169.4" height="169.4" rx="31.61" ry="31.61"/><path class="cls-2" d="M514,208l78.66-78.66a8.49,8.49,0,0,1,12,0h0a8.49,8.49,0,0,1,0,12L526,220a8.47,8.47,0,0,1-12,0h0A8.47,8.47,0,0,1,514,208Z"/><rect class="cls-2" x="521.77" y="98.28" width="112.93" height="16.94" rx="6.97" ry="6.97"/><rect class="cls-2" x="617.76" y="98.46" width="16.94" height="112.93" rx="6.96" ry="6.96"/><rect class="cls-4" x="6" y="76.98" width="169.4" height="169.4" rx="31.61" ry="31.61"/><path class="cls-2" d="M33.8,208l78.66-78.65a8.47,8.47,0,0,1,12,0h0a8.46,8.46,0,0,1,0,12L45.78,220a8.47,8.47,0,0,1-12,0h0A8.49,8.49,0,0,1,33.8,208Z"/><rect class="cls-2" x="41.57" y="98.26" width="112.93" height="16.94" rx="6.97" ry="6.97"/><path class="cls-2" d="M144.53,98.44h3a7,7,0,0,1,7,7v99a7,7,0,0,1-7,7h-3a7,7,0,0,1-7-7v-99A7,7,0,0,1,144.53,98.44Z"/></g></g></svg>